HIERARCHY
ROOT Hips
{
	OFFSET 0.000000 100.481300 0.000000
	CHANNELS 6 Xposition Yposition Zposition Xrotation Yrotation Zrotation 
	JOINT Spine
	{
		OFFSET -0.279200 12.230698 -2.892100
		CHANNELS 3 Xrotation Yrotation Zrotation
		JOINT Spine1
		{
			OFFSET -0.232667 10.192268 -1.242267
			CHANNELS 3 Xrotation Yrotation Zrotation
			JOINT Spine1_split
			{
				OFFSET -0.232667 10.192268 -1.242267
				CHANNELS 3 Xrotation Yrotation Zrotation
				JOINT Spine2
				{
					OFFSET -0.232667 10.192268 -1.242267
					CHANNELS 3 Xrotation Yrotation Zrotation
					JOINT Neck
					{
						OFFSET -0.418800 17.814194 8.416900
						CHANNELS 3 Xrotation Yrotation Zrotation
						JOINT Head
						{
							OFFSET 0.000000 7.031097 3.806800
							CHANNELS 3 Xrotation Yrotation Zrotation
							JOINT HeadTop_End
							{
								OFFSET 0.000000 24.646606 12.978600
								CHANNELS 3 Xrotation Yrotation Zrotation
								End Site
								{
									OFFSET 0.000000 0.000000 0.000000
								}
							}
						}
					}
					JOINT LeftShoulder
					{
						OFFSET 8.476499 7.247704 -3.868750
						CHANNELS 3 Xrotation Yrotation Zrotation
						JOINT LeftShoulder_split
						{
							OFFSET 8.476499 7.247704 -3.868750
							CHANNELS 3 Xrotation Yrotation Zrotation
							JOINT LeftArm
							{
								OFFSET 9.308998 -2.777710 0.208600
								CHANNELS 3 Xrotation Yrotation Zrotation
								JOINT LeftForeArm
								{
									OFFSET 29.972298 0.000000 0.000000
									CHANNELS 3 Xrotation Yrotation Zrotation
									JOINT LeftHand
									{
										OFFSET 26.026505 0.000000 0.000000
										CHANNELS 3 Xrotation Yrotation Zrotation
										JOINT LeftHandThumb1
										{
											OFFSET 12.240501 -7.147949 9.207150
											CHANNELS 3 Xrotation Yrotation Zrotation
											JOINT LeftHandThumb2
											{
												OFFSET 4.138618 -2.389435 2.389433
												CHANNELS 3 Xrotation Yrotation Zrotation
												JOINT LeftHandThumb3
												{
													OFFSET 2.726913 -1.574387 1.574386
													CHANNELS 3 Xrotation Yrotation Zrotation
													JOINT LeftHandThumb4
													{
														OFFSET 3.941010 -2.275345 2.275342
														CHANNELS 3 Xrotation Yrotation Zrotation
														End Site
														{
															OFFSET 0.000000 0.000000 0.000000
														}
													}
												}
											}
										}
										JOINT LeftHandIndex1
										{
											OFFSET 24.424698 -1.985611 5.953459
											CHANNELS 3 Xrotation Yrotation Zrotation
											JOINT LeftHandIndex2
											{
												OFFSET 6.426697 0.000000 0.000000
												CHANNELS 3 Xrotation Yrotation Zrotation
												JOINT LeftHandIndex3
												{
													OFFSET 5.337898 0.000000 0.000000
													CHANNELS 3 Xrotation Yrotation Zrotation
													JOINT LeftHandIndex4
													{
														OFFSET 4.409401 0.000000 0.000000
														CHANNELS 3 Xrotation Yrotation Zrotation
														End Site
														{
															OFFSET 0.000000 0.000000 0.000000
														}
													}
												}
											}
										}
										JOINT LeftHandMiddle1
										{
											OFFSET 23.810104 0.000000 0.000000
											CHANNELS 3 Xrotation Yrotation Zrotation
											JOINT LeftHandMiddle2
											{
												OFFSET 7.176498 0.000000 0.000000
												CHANNELS 3 Xrotation Yrotation Zrotation
												JOINT LeftHandMiddle3
												{
													OFFSET 6.774902 0.000000 0.000000
													CHANNELS 3 Xrotation Yrotation Zrotation
													JOINT LeftHandMiddle4
													{
														OFFSET 5.403328 0.000000 0.000000
														CHANNELS 3 Xrotation Yrotation Zrotation
														End Site
														{
															OFFSET 0.000000 0.000000 0.000000
														}
													}
												}
											}
										}
										JOINT LeftHandRing1
										{
											OFFSET 22.908401 -0.839279 -6.020567
											CHANNELS 3 Xrotation Yrotation Zrotation
											JOINT LeftHandRing2
											{
												OFFSET 6.337502 0.000000 0.000000
												CHANNELS 3 Xrotation Yrotation Zrotation
												JOINT LeftHandRing3
												{
													OFFSET 5.779297 0.000000 0.000000
													CHANNELS 3 Xrotation Yrotation Zrotation
													JOINT LeftHandRing4
													{
														OFFSET 4.965698 0.000000 0.000000
														CHANNELS 3 Xrotation Yrotation Zrotation
														End Site
														{
															OFFSET 0.000000 0.000000 0.000000
														}
													}
												}
											}
										}
										JOINT LeftHandPinky1
										{
											OFFSET 20.037003 -1.530319 -10.950146
											CHANNELS 3 Xrotation Yrotation Zrotation
											JOINT LeftHandPinky2
											{
												OFFSET 5.254700 0.000000 0.000000
												CHANNELS 3 Xrotation Yrotation Zrotation
												JOINT LeftHandPinky3
												{
													OFFSET 4.810204 0.000000 0.000000
													CHANNELS 3 Xrotation Yrotation Zrotation
													JOINT LeftHandPinky4
													{
														OFFSET 3.647202 0.000000 0.000000
														CHANNELS 3 Xrotation Yrotation Zrotation
														End Site
														{
															OFFSET 0.000000 0.000000 0.000000
														}
													}
												}
											}
										}
									}
								}
							}
						}
					}
					JOINT RightShoulder
					{
						OFFSET -7.570500 7.247704 -3.868750
						CHANNELS 3 Xrotation Yrotation Zrotation
						JOINT RightShoulder_split
						{
							OFFSET -7.570500 7.247704 -3.868750
							CHANNELS 3 Xrotation Yrotation Zrotation
							JOINT RightArm
							{
								OFFSET -9.308998 -2.777710 0.208500
								CHANNELS 3 Xrotation Yrotation Zrotation
								JOINT RightForeArm
								{
									OFFSET -29.972300 0.000000 0.000000
									CHANNELS 3 Xrotation Yrotation Zrotation
									JOINT RightHand
									{
										OFFSET -26.026505 0.000000 0.000000
										CHANNELS 3 Xrotation Yrotation Zrotation
										JOINT RightHandThumb1
										{
											OFFSET -12.240601 -7.148026 9.207092
											CHANNELS 3 Xrotation Yrotation Zrotation
											JOINT RightHandThumb2
											{
												OFFSET -4.138618 -2.389435 2.389433
												CHANNELS 3 Xrotation Yrotation Zrotation
												JOINT RightHandThumb3
												{
													OFFSET -2.726974 -1.574417 1.574421
													CHANNELS 3 Xrotation Yrotation Zrotation
													JOINT RightHandThumb4
													{
														OFFSET -3.941010 -2.275345 2.275343
														CHANNELS 3 Xrotation Yrotation Zrotation
														End Site
														{
															OFFSET 0.000000 0.000000 0.000000
														}
													}
												}
											}
										}
										JOINT RightHandIndex1
										{
											OFFSET -24.424698 -1.985657 5.953444
											CHANNELS 3 Xrotation Yrotation Zrotation
											JOINT RightHandIndex2
											{
												OFFSET -6.426697 0.000000 0.000000
												CHANNELS 3 Xrotation Yrotation Zrotation
												JOINT RightHandIndex3
												{
													OFFSET -5.337898 0.000000 0.000000
													CHANNELS 3 Xrotation Yrotation Zrotation
													JOINT RightHandIndex4
													{
														OFFSET -4.409401 0.000000 0.000000
														CHANNELS 3 Xrotation Yrotation Zrotation
														End Site
														{
															OFFSET 0.000000 0.000000 0.000000
														}
													}
												}
											}
										}
										JOINT RightHandMiddle1
										{
											OFFSET -23.810097 0.000000 0.000000
											CHANNELS 3 Xrotation Yrotation Zrotation
											JOINT RightHandMiddle2
											{
												OFFSET -7.176498 0.000000 0.000000
												CHANNELS 3 Xrotation Yrotation Zrotation
												JOINT RightHandMiddle3
												{
													OFFSET -6.774902 0.000000 0.000000
													CHANNELS 3 Xrotation Yrotation Zrotation
													JOINT RightHandMiddle4
													{
														OFFSET -5.403328 0.000000 0.000000
														CHANNELS 3 Xrotation Yrotation Zrotation
														End Site
														{
															OFFSET 0.000000 0.000000 0.000000
														}
													}
												}
											}
										}
										JOINT RightHandRing1
										{
											OFFSET -22.908302 -0.839325 -6.020576
											CHANNELS 3 Xrotation Yrotation Zrotation
											JOINT RightHandRing2
											{
												OFFSET -6.337502 0.000000 0.000000
												CHANNELS 3 Xrotation Yrotation Zrotation
												JOINT RightHandRing3
												{
													OFFSET -5.779297 0.000000 0.000000
													CHANNELS 3 Xrotation Yrotation Zrotation
													JOINT RightHandRing4
													{
														OFFSET -4.965698 0.000000 0.000000
														CHANNELS 3 Xrotation Yrotation Zrotation
														End Site
														{
															OFFSET 0.000000 0.000000 0.000000
														}
													}
												}
											}
										}
										JOINT RightHandPinky1
										{
											OFFSET -20.037003 -1.530334 -10.950259
											CHANNELS 3 Xrotation Yrotation Zrotation
											JOINT RightHandPinky2
											{
												OFFSET -5.254700 0.000000 0.000000
												CHANNELS 3 Xrotation Yrotation Zrotation
												JOINT RightHandPinky3
												{
													OFFSET -4.810204 0.000000 0.000000
													CHANNELS 3 Xrotation Yrotation Zrotation
													JOINT RightHandPinky4
													{
														OFFSET -3.647202 0.000000 0.000000
														CHANNELS 3 Xrotation Yrotation Zrotation
														End Site
														{
															OFFSET 0.000000 0.000000 0.000000
														}
													}
												}
											}
										}
									}
								}
							}
						}
					}
				}
			}
		}
	}
	JOINT LeftUpLeg
	{
		OFFSET 15.427100 -6.655098 0.678600
		CHANNELS 3 Xrotation Yrotation Zrotation
		JOINT LeftLeg
		{
			OFFSET 4.081073 -39.591068 13.024000
			CHANNELS 3 Xrotation Yrotation Zrotation
			JOINT LeftFoot
			{
				OFFSET -4.081074 -37.707932 -15.979700
				CHANNELS 3 Xrotation Yrotation Zrotation
				JOINT LeftToeBase
				{
					OFFSET 5.346399 -15.068900 20.645000
					CHANNELS 3 Xrotation Yrotation Zrotation
					JOINT LeftToe_End
					{
						OFFSET 2.754700 0.931300 11.300900
						CHANNELS 3 Xrotation Yrotation Zrotation
						End Site
						{
							OFFSET 0.000000 0.000000 0.000000
						}
					}
				}
			}
		}
	}
	JOINT RightUpLeg
	{
		OFFSET -15.569500 -6.655098 0.678600
		CHANNELS 3 Xrotation Yrotation Zrotation
		JOINT RightLeg
		{
			OFFSET -4.081825 -39.591045 13.023800
			CHANNELS 3 Xrotation Yrotation Zrotation
			JOINT RightFoot
			{
				OFFSET 4.081824 -37.707954 -15.979600
				CHANNELS 3 Xrotation Yrotation Zrotation
				JOINT RightToeBase
				{
					OFFSET -5.346400 -15.068900 20.645000
					CHANNELS 3 Xrotation Yrotation Zrotation
					JOINT RightToe_End
					{
						OFFSET -2.754700 0.931300 11.300900
						CHANNELS 3 Xrotation Yrotation Zrotation
						End Site
						{
							OFFSET 0.000000 0.000000 0.000000
						}
					}
				}
			}
		}
	}
}
MOTION
Frames: 4
Frame Time: 0.016667
3.715337 62.684044 -50.712223 16.182151 -76.488543 15.548050 4.525486 9.119057 -3.543669 9.594759 18.344814 -7.012217 0.000000 0.000000 0.000000 9.594758 18.344795 -7.012212 2.735908 2.537196 0.917081 2.210332 -0.400988 -2.541341 -0.000000 -0.000002 0.000001 4.442670 -4.896768 0.391713 0.000000 0.000000 0.000000 -74.044851 -32.200879 -59.779557 45.630045 -71.166418 44.297431 30.811560 -13.945429 5.324247 -19.313917 7.326455 -0.325091 17.757223 27.151351 -7.102071 0.000003 -0.000004 -0.000017 -0.000002 0.000002 -0.000001 8.737620 0.556781 -27.858982 -3.246441 1.052143 -21.338370 0.000001 0.000003 -0.000001 -0.000001 -0.000000 -0.000002 -3.793151 6.626413 -20.382886 -1.406087 -1.003754 -21.514838 0.000007 -0.000002 -0.000006 0.000000 0.000001 0.000000 -8.139615 9.456989 -29.778932 1.966549 -4.844271 -27.350968 0.000002 0.000022 -0.000002 0.000000 0.000000 -0.000002 -7.314756 11.108270 -42.805837 1.162394 -7.791598 -40.565221 0.000000 -0.000000 0.000002 0.000001 0.000000 0.000000 3.889430 8.333833 -7.261184 0.000000 0.000000 0.000000 -42.000240 -3.203189 27.938520 -12.789889 47.794928 2.424362 36.354201 22.263326 -26.066814 -9.151833 -3.932296 17.229567 -8.906333 -3.563928 -6.479051 0.000000 0.000025 0.000001 0.000000 0.000003 -0.000001 -2.009634 8.213986 -5.048300 -1.625959 -0.980990 33.676535 -0.000000 -0.000001 0.000000 -0.000001 -0.000001 0.000000 -3.382736 -5.223058 -15.049903 -1.435145 -1.099671 25.006607 0.000001 -0.000018 0.000008 -0.000000 -0.000002 0.000000 -8.188930 -12.219943 -0.270456 2.472528 4.601777 34.000426 0.000000 0.000000 -0.000001 0.000000 -0.000002 0.000000 -14.081789 -14.805121 6.122715 3.294867 9.546756 30.562320 -0.000001 -0.000006 -0.000000 -0.000000 0.000004 -0.000001 -38.469077 -11.223182 34.498336 72.811135 6.207830 -2.557822 -19.544960 9.214205 -34.766810 -2.515480 -3.237325 0.633301 -0.000000 0.000000 -0.000000 -52.651077 -2.157944 -15.535474 78.972990 19.421783 -5.749604 -30.305532 -1.318708 3.963052 -1.854624 -0.300687 0.346312 -0.000000 0.000001 0.000000 
3.882393 61.803932 -51.037300 23.446031 -75.208401 22.257899 4.632348 8.945658 -3.634891 9.805974 18.007215 -7.165120 0.000000 0.000000 0.000000 9.805970 18.007222 -7.165120 1.927737 4.490861 1.287778 1.537589 -0.532062 -4.732040 0.000003 -0.000002 0.000000 4.342704 -4.985457 -0.341772 0.000000 0.000000 0.000000 -66.423275 -29.193226 -56.580505 44.445465 -70.007383 43.935813 31.304471 -11.015005 4.016406 -19.044908 6.177802 0.482007 19.312377 28.165043 -8.456589 0.000002 -0.000002 -0.000017 -0.000000 -0.000001 0.000001 9.294370 -0.271002 -31.038459 -3.248161 0.907470 -22.504490 -0.000001 0.000004 -0.000000 -0.000000 -0.000001 -0.000001 -3.842868 6.742087 -20.716322 -1.447309 -1.155401 -22.951727 0.000006 0.000002 -0.000008 -0.000000 -0.000001 0.000001 -8.079870 9.523685 -29.657948 1.892681 -4.850341 -27.940878 0.000001 0.000022 0.000002 0.000001 -0.000002 0.000001 -7.803390 10.746619 -42.756574 1.095366 -7.784616 -41.809217 -0.000001 0.000000 -0.000001 -0.000004 0.000000 -0.000002 3.540740 8.113212 -5.624216 0.000000 0.000000 0.000000 -39.216088 -4.972977 28.094472 -12.221729 46.311473 3.788282 34.197675 22.070066 -22.498764 -9.063446 -3.936871 17.210053 -8.695219 -3.775186 -6.551194 -0.000000 0.000018 -0.000001 -0.000000 0.000000 0.000000 -2.062659 8.026969 -3.931497 -1.632747 -0.857247 34.503083 -0.000001 -0.000003 0.000000 0.000000 -0.000003 -0.000002 -3.225487 -5.131288 -13.367338 -1.402176 -0.904892 26.301233 0.000001 -0.000017 0.000007 0.000000 -0.000003 -0.000000 -7.680288 -12.230763 1.506792 2.246278 4.705187 35.492620 -0.000000 -0.000001 0.000001 -0.000000 0.000000 -0.000001 -13.333135 -14.852460 8.352894 3.002297 9.636736 32.213928 -0.000002 -0.000006 -0.000001 -0.000000 0.000000 -0.000002 -42.280162 -12.102273 35.398453 73.720499 4.944378 -2.825857 -19.138839 8.722411 -34.244533 -2.479120 -3.226590 0.662929 0.000000 0.000001 0.000000 -55.349340 -1.542336 -15.516962 79.954925 18.877909 -5.086043 -30.733140 -1.451045 4.142984 -2.079960 -0.442226 0.287586 0.000000 -0.000000 -0.000000 
4.060796 61.141617 -51.324593 29.390403 -73.682947 27.812091 4.739311 8.780192 -3.709959 10.016245 17.679736 -7.291494 0.000000 0.000000 0.000000 10.016240 17.679750 -7.291498 1.141878 6.463879 1.637532 0.937883 -0.640677 -6.991574 -0.000000 -0.000001 0.000001 4.231873 -4.936956 -0.833281 0.000000 0.000000 0.000000 -58.521409 -25.699415 -53.642639 41.104488 -69.046505 41.375797 30.954175 -7.949381 3.669308 -18.695741 5.341812 1.222995 19.851257 28.173178 -9.185002 0.000003 -0.000004 -0.000018 0.000001 0.000001 0.000000 9.121594 -1.933219 -33.603335 -3.251636 0.762707 -23.660861 0.000002 0.000002 -0.000002 0.000001 -0.000001 0.000003 -3.890816 6.785530 -21.931751 -1.491383 -1.304131 -24.365634 0.000005 -0.000002 -0.000003 0.000002 0.000000 0.000003 -7.771799 10.307839 -30.766457 1.809479 -4.872224 -28.906856 0.000004 0.000019 -0.000000 0.000001 -0.000003 0.000002 -7.772683 11.953575 -44.457753 1.028325 -7.779518 -43.355329 0.000000 -0.000000 -0.000000 -0.000004 -0.000000 0.000000 3.219516 7.942040 -3.888787 0.000000 0.000000 0.000000 -35.652368 -7.358675 27.766293 -11.633930 45.311427 5.140171 31.216881 21.636484 -18.441004 -8.993636 -3.944203 17.135307 -8.463733 -3.999597 -6.613713 -0.000003 0.000024 -0.000000 -0.000000 0.000000 -0.000004 -2.142768 7.757671 -2.456755 -1.629395 -0.726813 35.289607 0.000001 -0.000002 0.000005 0.000001 -0.000000 0.000002 -3.043229 -5.002359 -11.157959 -1.372905 -0.672049 27.878648 0.000001 -0.000012 0.000009 0.000000 -0.000001 -0.000000 -7.078846 -12.195033 3.756904 1.980152 4.816496 37.201073 0.000002 0.000000 -0.000002 0.000002 0.000000 -0.000002 -12.440650 -14.869014 10.893924 2.656903 9.731692 34.190049 -0.000000 -0.000004 -0.000000 0.000002 0.000001 -0.000002 -46.006515 -12.849173 35.836445 74.292275 3.929176 -3.078458 -18.519925 8.222752 -33.653496 -2.405844 -3.232633 0.742432 0.000000 -0.000000 0.000000 -57.863812 -0.794159 -15.625632 80.666665 18.266972 -4.516467 -31.055641 -1.682699 4.513107 -2.114513 -0.465125 0.283343 0.000000 -0.000000 0.000000 
4.243248 60.698425 -51.585751 33.928008 -72.036229 32.150530 4.853277 8.622999 -3.762067 10.238193 17.364537 -7.376337 0.000000 0.000000 0.000000 10.238196 17.364547 -7.376345 0.368234 8.396670 1.955980 0.410722 -0.716196 -9.243253 0.000003 0.000001 -0.000001 4.107738 -4.811329 -1.179672 0.000000 0.000000 0.000000 -50.713048 -21.636926 -51.563198 36.144480 -68.037611 36.990187 29.863728 -5.250588 4.082329 -18.282721 4.747882 1.912511 19.476269 27.304072 -9.321522 0.000001 -0.000005 -0.000017 0.000000 -0.000000 0.000000 8.191134 -4.289877 -35.718105 -3.258097 0.613777 -24.845312 0.000000 0.000001 0.000002 0.000000 -0.000001 -0.000003 -3.936830 6.766881 -23.953757 -1.539537 -1.453387 -25.791189 0.000006 -0.000002 -0.000006 0.000002 -0.000002 0.000000 -7.141146 11.712613 -33.013064 1.716904 -4.907850 -30.228727 0.000002 0.000023 -0.000003 0.000003 0.000003 -0.000001 -7.043598 14.522691 -47.782600 0.961473 -7.775737 -45.186131 -0.000004 -0.000002 0.000001 -0.000003 0.000000 -0.000001 2.932186 7.881682 -2.048415 0.000000 0.000000 0.000000 -31.285839 -10.550638 27.298313 -11.071056 45.033336 6.402669 27.469761 20.872030 -13.854843 -8.937082 -3.951765 17.012512 -8.206383 -4.247614 -6.666318 -0.000002 0.000025 -0.000001 -0.000000 0.000003 0.000002 -2.237309 7.418784 -0.626217 -1.620787 -0.585834 36.089640 -0.000000 -0.000000 0.000000 -0.000001 0.000003 -0.000004 -2.842425 -4.831155 -8.446978 -1.353449 -0.403317 29.723771 0.000000 -0.000011 0.000009 -0.000001 -0.000000 -0.000001 -6.401998 -12.092152 6.441904 1.678101 4.929166 39.109141 0.000001 0.000003 -0.000002 -0.000002 0.000001 0.000001 -11.428150 -14.820805 13.730219 2.265926 9.821382 36.452453 -0.000004 -0.000004 -0.000000 0.000002 0.000000 -0.000001 -49.484369 -13.381024 35.789413 74.536693 3.191892 -3.262817 -17.783492 7.775691 -33.013354 -2.332840 -3.237096 0.814648 0.000000 0.000000 0.000000 -60.086294 0.088383 -15.847316 81.130312 17.577072 -4.049532 -31.288373 -1.957173 5.052603 -2.015173 -0.416297 0.308897 -0.000000 -0.000002 0.000000 
